inDegrees=no
num_controls=7
num_derivatives=13
num_iterations=110
num_multipliers=7
num_parameters=0
num_slacks=7
num_states=26
objective=0.469917
objective_accelerations=0.062837
objective_balance=0.002147
objective_effort=0.020058
objective_height=0.375316
objective_ligament=0.009559
solver_duration=1524.209442
status=Solve_Succeeded
success=true
DataType=double
version=3
OpenSimVersion=4.5
endheader
time	/jointset/ground_pelvis/pelvis_tilt/value	/jointset/ground_pelvis/pelvis_tx/value	/jointset/ground_pelvis/pelvis_ty/value	/jointset/hip_l/hip_flexion_l/value	/jointset/hip_l/hip_adduction_l/value	/jointset/hip_l/hip_rotation_l/value	/jointset/back/lumbar_extension/value	/jointset/patellofemoral_l/patellar_flexion_l/value	/jointset/knee_l/knee_flexion_l/value	/jointset/knee_l/knee_adduction_l/value	/jointset/knee_l/knee_rotation_l/value	/jointset/ankle_l/ankle_angle_l/value	/jointset/subtalar_l/subtalar_angle_l/value	/jointset/ground_pelvis/pelvis_tilt/speed	/jointset/ground_pelvis/pelvis_tx/speed	/jointset/ground_pelvis/pelvis_ty/speed	/jointset/hip_l/hip_flexion_l/speed	/jointset/hip_l/hip_adduction_l/speed	/jointset/hip_l/hip_rotation_l/speed	/jointset/back/lumbar_extension/speed	/jointset/patellofemoral_l/patellar_flexion_l/speed	/jointset/knee_l/knee_flexion_l/speed	/jointset/knee_l/knee_adduction_l/speed	/jointset/knee_l/knee_rotation_l/speed	/jointset/ankle_l/ankle_angle_l/speed	/jointset/subtalar_l/subtalar_angle_l/speed	/forceset/tau_hip_flexion_l	/forceset/tau_hip_adduction_l	/forceset/tau_hip_rotation_l	/forceset/tau_knee_flexion_l	/forceset/tau_ankle_angle_l	/forceset/tau_subtalar_angle_l	/forceset/tau_lumbar_extension	lambda_cid13_p0	lambda_cid13_p1	lambda_cid13_p2	lambda_cid13_p3	lambda_cid13_p4	lambda_cid13_p5	lambda_cid14_p0	/jointset/ground_pelvis/pelvis_tilt/accel	/jointset/ground_pelvis/pelvis_tx/accel	/jointset/ground_pelvis/pelvis_ty/accel	/jointset/hip_l/hip_flexion_l/accel	/jointset/hip_l/hip_adduction_l/accel	/jointset/hip_l/hip_rotation_l/accel	/jointset/back/lumbar_extension/accel	/jointset/patellofemoral_l/patellar_flexion_l/accel	/jointset/knee_l/knee_flexion_l/accel	/jointset/knee_l/knee_adduction_l/accel	/jointset/knee_l/knee_rotation_l/accel	/jointset/ankle_l/ankle_angle_l/accel	/jointset/subtalar_l/subtalar_angle_l/accel	gamma_cid13_p0	gamma_cid13_p1	gamma_cid13_p2	gamma_cid13_p3	gamma_cid13_p4	gamma_cid13_p5	gamma_cid14_p0
1.5	-0.5457831893010063	-0.03994313938269948	0.7916242571256407	1.193878171017405	-0.3482523099028029	-0.1157462168100634	-0.3393965948563337	0.5707653954334014	0.5707653954332209	-0.05992035999949649	-0.174492241478107	0.01815024734453371	0.07923111278317418	1.044929016908954	0.4994251445695299	0.4708411900558989	-2.793772347442641	-0.005554424040708742	-0.5203792303310276	0.5984349028900841	-1.551432267566703	-1.551432267566601	-0.2186254387416873	0.00255585848915345	0.08589886980786615	0.02599758233919261	-0.1983853720595905	0.02035950438755346	0.007503740371470226	-0.06919344379260139	0.03760897000807421	0.004495662219847334	0.162709331865641	-12.05950889334076	-2.226159631319494	2.79840248391184	-6.847334088995822	-429.4982155150025	-56.70785762797728	-20.04644440022617	0.7760501965916625	0.8293403241305807	-0.6286950591066691	-1.644109319173686	0.2415019784721734	-0.2653469188212866	1.766812879437022	-0.5707749150794407	-0.5707749150794477	-0.3482017232591396	0.1691920851694174	0.2399107914666846	0.3241933905492269	7.81274443278123e-10	1.347087819760746e-06	1.0732013697036e-08	2.753054246953915e-07	2.472207781414817e-07	-1.34290249358282e-07	2.280626589370545e-07
1.51	-0.535295736398442	-0.03490799077065612	0.7963003063165339	1.165860480860803	-0.3482970996205056	-0.1209640391844442	-0.333325956457962	0.5552242582689996	0.5552242582688488	-0.06212595051704789	-0.1744602308533524	0.01902090621441191	0.07950586014486734	1.052386606431682	0.5075328547982861	0.4642674612704856	-2.809370240021908	-0.003384733567670449	-0.5231469491728747	0.6156018382945105	-1.556589835182889	-1.556589835182838	-0.2224378691720937	0.003856919370119209	0.08823625705634754	0.02897273512864025	-0.1916512204706672	0.01976298774289971	0.007838121271997549	-0.06755311213992291	0.03452684219262324	0.003537158377641498	0.157689567174145	-12.90873723828703	-1.853393740430858	2.958518690016948	-6.141990184585261	-425.7639639049063	-56.37935985901862	-20.56450279338466	0.7044043504727489	0.7907706411378473	-0.6867994732432565	-1.458270327945622	0.2073866874926445	-0.2764905052476461	1.677993097487867	-0.4575103455623462	-0.457510345570006	-0.3893468621333436	0.1119736017283944	0.2311913113314641	0.2871956078145591	6.07601619851089e-08	1.255352577832475e-06	-4.603456662539298e-07	2.345964337021156e-07	3.821864830703358e-07	-1.308422899262791e-07	2.827368744687824e-07
1.52	-0.5247389493965769	-0.02979390820254726	0.800907600682576	1.137698683558279	-0.3483196556123238	-0.1262083399749222	-0.3270863768602373	0.539637692896289	0.5396376928961907	-0.06436798197070415	-0.1744149275173718	0.01991504668073342	0.07981096291138938	1.058795836768784	0.5152119357826278	0.4570902250856876	-2.822593776626877	-0.001107678863709893	-0.5256749135499729	0.6322231427606324	-1.56051790922604	-1.56051790922604	-0.2259136259705797	0.005214400737815557	0.09059518909653323	0.03206866330496885	-0.1849170688817537	0.01916647109823348	0.008172502172686844	-0.0659127804872499	0.03144471437716925	0.002578654535420873	0.1526698024826424	-13.76195860227211	-1.480363709530905	3.119090191028417	-5.425433750821304	-422.0888259159428	-56.10924796034429	-21.06111779471219	0.5663783594663527	0.7436144752476361	-0.7493965389835959	-1.169238124314439	0.2629748246566152	-0.2173960258715292	1.657686691776064	-0.3248762004723935	-0.3248762004723955	-0.2808669968750691	0.1804761825155259	0.2442197498075443	0.3483484679254203	9.332201228596058e-08	1.222531819768626e-06	-7.270502807919189e-07	2.134370803952193e-07	4.655909210173736e-07	-1.129746883321875e-07	3.147625970993708e-07
1.53	-0.5141232169497733	-0.02460526293208463	0.8054401923214924	1.109416366498144	-0.3483190934819091	-0.1314762131251442	-0.3206834312696887	0.5240178900249901	0.524017890024982	-0.06664368506193513	-0.1743554111464371	0.02083276282577291	0.08014739146157818	1.0641787890607	0.5224361224369095	0.4493346642367681	-2.833472995925408	0.001224657596748996	-0.5278106049226358	0.6482685872415208	-1.563237808243596	-1.563237808243638	-0.2292116138006514	0.006734230787522475	0.09294393510537444	0.0352205552364367	-0.1784036000368384	0.01857337642057824	0.008496783930814093	-0.06409694118422242	0.02814737326921734	0.001447304870765972	0.1477754502934477	-14.70791805332445	-1.026006859293217	3.278092468282371	-4.612590723669386	-418.6267403621554	-55.69289571043426	-21.53353861519472	0.4985087117212231	0.6997139478674741	-0.8025497202443709	-0.9877246013471462	0.2189119571180854	-0.1980252979750238	1.563365110115658	-0.2148836309972182	-0.2148836310035089	-0.3517593618519705	0.1443333058901384	0.2296223966400307	0.2990309178001708	9.67532605182723e-08	1.252307700810724e-06	-7.766085133286223e-07	2.130492171301008e-07	4.94211512796232e-07	-7.978621694087683e-08	3.227242960224989e-07
1.54	-0.5034588039705157	-0.01934679715760938	0.8098924455794402	1.081037165091278	-0.3482950982068143	-0.1367627171100971	-0.3141229528775569	0.5083770207877826	0.5083770207878886	-0.06895186696858221	-0.174279377097089	0.02177385050494435	0.08051542320349019	1.068531943259292	0.5291760365851509	0.4410225488919157	-2.841970645972929	0.003578950072312286	-0.5294010804957543	0.6637297030772258	-1.564731182405152	-1.564731182405235	-0.2324093890618746	0.008517936424905186	0.09526949592292082	0.0383893016496126	-0.1718901311919321	0.01798028174291357	0.008821065689101753	-0.06228110188120185	0.02485003216126269	0.0003159552060988545	0.1428810981042468	-15.65799286493942	-0.5711328860776396	3.437245471203415	-3.788702245524182	-415.2249863661091	-55.33723014573331	-21.98094737685186	0.360418740801528	0.6467599740395655	-0.8607074381701573	-0.6929242741124101	0.2673660276774876	-0.1083528659626566	1.540820962739408	-0.07957122927230997	-0.07957122927230856	-0.2608244831053905	0.2332513000506835	0.239582711548575	0.35171936426703	9.626278129863093e-08	1.342557033857818e-06	-7.797149324943019e-07	2.185565420689839e-07	5.259140276897683e-07	-4.603920669166353e-08	3.322716740722249e-07
